<svg xmlns="http://www.w3.org/2000/svg" xmlns:xlink="http://www.w3.org/1999/xlink" version="1.1" data-diagram-type="MINDMAP" style="width:491px;height:352px;background:#FFFFFF;" width="491px" height="352px" viewBox="0 0 491 352" zoomAndPan="magnify" preserveAspectRatio="none" contentStyleType="text/css"><?plantuml 1.2026.8?><defs/><g font-family="sans-serif" lengthAdjust="spacing"><g class="title" data-source-line="2"><text x="79.659" y="32.995" fill="#000" font-size="14" textLength="329.779" font-weight="700">gcloud workflows — Component Mindmap</text></g><rect x="10" y="169.891" width="158.141" height="36.297" fill="#4285F4" style="stroke:#4285F4;stroke-width:1.5;" rx="12.5" ry="12.5"/><text x="20" y="192.886" fill="#FFF" font-size="14" textLength="138.141" font-weight="700">gcloud workflows</text><rect x="218.141" y="141.742" width="106.181" height="36.297" fill="#E8F0FE" style="stroke:#4285F4;stroke-width:1.5;" rx="12.5" ry="12.5"/><text x="228.141" y="164.737" fill="#202124" font-size="14" textLength="86.181" font-weight="700">Definitions</text><rect x="374.321" y="57.297" width="40.563" height="36.297" fill="#F8F9FA" style="stroke:#4285F4;stroke-width:1.5;" rx="12.5" ry="12.5"/><text x="384.321" y="80.292" fill="#202124" font-size="14" textLength="20.563">list</text><path d="M324.321,159.891 L334.321,159.891 C349.321,159.891 349.321,75.445 364.321,75.445 L374.321,75.445" style="stroke:#181818;stroke-width:1;" fill="none"/><rect x="374.321" y="113.594" width="79.637" height="36.297" fill="#F8F9FA" style="stroke:#4285F4;stroke-width:1.5;" rx="12.5" ry="12.5"/><text x="384.321" y="136.589" fill="#202124" font-size="14" textLength="59.637">describe</text><path d="M324.321,159.891 L334.321,159.891 C349.321,159.891 349.321,131.742 364.321,131.742 L374.321,131.742" style="stroke:#181818;stroke-width:1;" fill="none"/><rect x="374.321" y="169.891" width="67.127" height="36.297" fill="#F8F9FA" style="stroke:#4285F4;stroke-width:1.5;" rx="12.5" ry="12.5"/><text x="384.321" y="192.886" fill="#202124" font-size="14" textLength="47.127">deploy</text><path d="M324.321,159.891 L334.321,159.891 C349.321,159.891 349.321,188.039 364.321,188.039 L374.321,188.039" style="stroke:#181818;stroke-width:1;" fill="none"/><rect x="374.321" y="226.188" width="64.105" height="36.297" fill="#F8F9FA" style="stroke:#4285F4;stroke-width:1.5;" rx="12.5" ry="12.5"/><text x="384.321" y="249.183" fill="#202124" font-size="14" textLength="44.105">delete</text><path d="M324.321,159.891 L334.321,159.891 C349.321,159.891 349.321,244.336 364.321,244.336 L374.321,244.336" style="stroke:#181818;stroke-width:1;" fill="none"/><path d="M168.141,188.039 L178.141,188.039 C193.141,188.039 193.141,159.891 208.141,159.891 L218.141,159.891" style="stroke:#181818;stroke-width:1;" fill="none"/><rect x="218.141" y="282.484" width="105.764" height="36.297" fill="#E8F0FE" style="stroke:#4285F4;stroke-width:1.5;" rx="12.5" ry="12.5"/><text x="228.141" y="305.479" fill="#202124" font-size="14" textLength="85.764" font-weight="700">Executions</text><rect x="373.904" y="282.484" width="96.193" height="36.297" fill="#F8F9FA" style="stroke:#4285F4;stroke-width:1.5;" rx="12.5" ry="12.5"/><text x="383.904" y="305.479" fill="#202124" font-size="14" textLength="76.193">executions</text><path d="M323.904,300.633 L333.904,300.633 C348.904,300.633 348.904,300.633 363.904,300.633 L373.904,300.633" style="stroke:#181818;stroke-width:1;" fill="none"/><path d="M168.141,188.039 L178.141,188.039 C193.141,188.039 193.141,300.633 208.141,300.633 L218.141,300.633" style="stroke:#181818;stroke-width:1;" fill="none"/><g class="footer" data-source-line="3"><text x="59.988" y="338.063" fill="#888" font-size="10" textLength="369.121">Disponível em  https://github.com/acnaweb/gcp-associate-cloud-engineer</text></g><?plantuml-src XP9HJiCm38RVSmfBlC2ahLirK9acDDZM9-254wIjrqPBuofnAHEQn26u1gVW9fo4j7JQ0qoyHFPl-xFZPE5OMYwLoKfP2S6ADKAUQgepQCXkDveQ1rzlxx2aiYA3Xk6XpzuGCLfOAUS3dn_Fg05BW8AvShCWo1KNTJ9AgGnaQcI3IP2drL0wHwcIZCEkon1DhWoY5MBkUAVnHlJJh9JChIpXLG0Ooh0p0EvakiqjrIPRaYOBJQ4OkyYzv_nePzCmkeoddHgJuLuDn-4aRDMzy8Vrup-UvlxDE7PhjQTsO4X8PmVeBCEAY_F9nIdgEeh7yVf_GdYI44VnTNpRfU_5FEYN9WQ_dirh0rZXHXd5YeppxW2qSjmP6RhKgWHxfzAqwqsD_efjxVe5q_fOYaTNBD2_qU7NJ4P-irUZw1i0?></g></svg>