<svg xmlns="http://www.w3.org/2000/svg" xmlns:xlink="http://www.w3.org/1999/xlink" version="1.1" data-diagram-type="MINDMAP" style="width:552px;height:352px;background:#FFFFFF;" width="552px" height="352px" viewBox="0 0 552 352" zoomAndPan="magnify" preserveAspectRatio="none" contentStyleType="text/css"><?plantuml 1.2026.8?><defs/><g font-family="sans-serif" lengthAdjust="spacing"><g class="title" data-source-line="2"><text x="106.993" y="32.995" fill="#000" font-size="14" textLength="336.212" font-weight="700">gcloud monitoring — Component Mindmap</text></g><rect x="10" y="169.891" width="164.573" height="36.297" fill="#4285F4" style="stroke:#4285F4;stroke-width:1.5;" rx="12.5" ry="12.5"/><text x="20" y="192.886" fill="#FFF" font-size="14" textLength="144.573" font-weight="700">gcloud monitoring</text><rect x="224.573" y="57.297" width="113.714" height="36.297" fill="#E8F0FE" style="stroke:#4285F4;stroke-width:1.5;" rx="12.5" ry="12.5"/><text x="234.573" y="80.292" fill="#202124" font-size="14" textLength="93.714" font-weight="700">Dashboards</text><rect x="388.287" y="57.297" width="101.601" height="36.297" fill="#F8F9FA" style="stroke:#4285F4;stroke-width:1.5;" rx="12.5" ry="12.5"/><text x="398.287" y="80.292" fill="#202124" font-size="14" textLength="81.601">dashboards</text><path d="M338.287,75.445 L348.287,75.445 C363.287,75.445 363.287,75.445 378.287,75.445 L388.287,75.445" style="stroke:#181818;stroke-width:1;" fill="none"/><path d="M174.573,188.039 L184.573,188.039 C199.573,188.039 199.573,75.445 214.573,75.445 L224.573,75.445" style="stroke:#181818;stroke-width:1;" fill="none"/><rect x="224.573" y="141.742" width="83.513" height="36.297" fill="#E8F0FE" style="stroke:#4285F4;stroke-width:1.5;" rx="12.5" ry="12.5"/><text x="234.573" y="164.737" fill="#202124" font-size="14" textLength="63.513" font-weight="700">Alerting</text><rect x="358.086" y="113.594" width="72.726" height="36.297" fill="#F8F9FA" style="stroke:#4285F4;stroke-width:1.5;" rx="12.5" ry="12.5"/><text x="368.086" y="136.589" fill="#202124" font-size="14" textLength="52.726">policies</text><path d="M308.086,159.891 L318.086,159.891 C333.086,159.891 333.086,131.742 348.086,131.742 L358.086,131.742" style="stroke:#181818;stroke-width:1;" fill="none"/><rect x="358.086" y="169.891" width="82.692" height="36.297" fill="#F8F9FA" style="stroke:#4285F4;stroke-width:1.5;" rx="12.5" ry="12.5"/><text x="368.086" y="192.886" fill="#202124" font-size="14" textLength="62.692">channels</text><path d="M308.086,159.891 L318.086,159.891 C333.086,159.891 333.086,188.039 348.086,188.039 L358.086,188.039" style="stroke:#181818;stroke-width:1;" fill="none"/><path d="M174.573,188.039 L184.573,188.039 C199.573,188.039 199.573,159.891 214.573,159.891 L224.573,159.891" style="stroke:#181818;stroke-width:1;" fill="none"/><rect x="224.573" y="226.188" width="166.945" height="36.297" fill="#E8F0FE" style="stroke:#4285F4;stroke-width:1.5;" rx="12.5" ry="12.5"/><text x="234.573" y="249.183" fill="#202124" font-size="14" textLength="146.945" font-weight="700">Synthetic / Uptime</text><rect x="441.519" y="226.188" width="69.39" height="36.297" fill="#F8F9FA" style="stroke:#4285F4;stroke-width:1.5;" rx="12.5" ry="12.5"/><text x="451.519" y="249.183" fill="#202124" font-size="14" textLength="49.39">uptime</text><path d="M391.519,244.336 L401.519,244.336 C416.519,244.336 416.519,244.336 431.519,244.336 L441.519,244.336" style="stroke:#181818;stroke-width:1;" fill="none"/><path d="M174.573,188.039 L184.573,188.039 C199.573,188.039 199.573,244.336 214.573,244.336 L224.573,244.336" style="stroke:#181818;stroke-width:1;" fill="none"/><rect x="224.573" y="282.484" width="130.845" height="36.297" fill="#E8F0FE" style="stroke:#4285F4;stroke-width:1.5;" rx="12.5" ry="12.5"/><text x="234.573" y="305.479" fill="#202124" font-size="14" textLength="110.845" font-weight="700">Metrics Scope</text><rect x="405.418" y="282.484" width="125.779" height="36.297" fill="#F8F9FA" style="stroke:#4285F4;stroke-width:1.5;" rx="12.5" ry="12.5"/><text x="415.418" y="305.479" fill="#202124" font-size="14" textLength="105.779">metrics-scopes</text><path d="M355.418,300.633 L365.418,300.633 C380.418,300.633 380.418,300.633 395.418,300.633 L405.418,300.633" style="stroke:#181818;stroke-width:1;" fill="none"/><path d="M174.573,188.039 L184.573,188.039 C199.573,188.039 199.573,300.633 214.573,300.633 L224.573,300.633" style="stroke:#181818;stroke-width:1;" fill="none"/><g class="footer" data-source-line="3"><text x="90.538" y="338.063" fill="#888" font-size="10" textLength="369.121">Disponível em  https://github.com/acnaweb/gcp-associate-cloud-engineer</text></g><?plantuml-src XP9HIWCn48RVSue1NxJGhbsgh4L4RRjFrfVY0TBik1jCCaiojHGfU0YluIcyYISnkzlI1os-XCd__tmpP78RM7gssXLMraAmPeDGAaEh0YmvpUIrA-7x_GCcP6jow1Zck_Wp4QE7gGxH-FfyHGDe0IhcEeoJfDHShPO3HJQHoiarBfDIrNqP0Yaj6VjjcpwwKZj4ByHru8t16x4RPwfbwQM5Dm7WgC2s0BYNwgNqj7B5X0nvM5UQiNKU8gVJJaPfTf6FMZKdnpirFK-7QQDkHJny7F_nEFTlng5ReosQWM59fjX3nmNMN9qEpuvHPrb-di_-9wH72NcMN-LtRNmhhfFTeudUxxr5iGTJ6QebIL-4UEj1SRWsxfr1pqsqyMeoMcdiWggIpg7fOekDumfPAqZWgMPjiSsikh99p96zLW4MYkhEj9tI3uqICRSOrxh_QSD1NCRb8Fi1?></g></svg>