<svg xmlns="http://www.w3.org/2000/svg" xmlns:xlink="http://www.w3.org/1999/xlink" version="1.1" data-diagram-type="MINDMAP" style="width:639px;height:296px;background:#FFFFFF;" width="639px" height="296px" viewBox="0 0 639 296" zoomAndPan="magnify" preserveAspectRatio="none" contentStyleType="text/css"><?plantuml 1.2026.8?><defs/><g font-family="sans-serif" lengthAdjust="spacing"><g class="title" data-source-line="2"><text x="148.398" y="32.995" fill="#000" font-size="14" textLength="340.307" font-weight="700">gcloud datastream — Component Mindmap</text></g><rect x="10" y="141.742" width="168.668" height="36.297" fill="#4285F4" style="stroke:#4285F4;stroke-width:1.5;" rx="12.5" ry="12.5"/><text x="20" y="164.737" fill="#FFF" font-size="14" textLength="148.668" font-weight="700">gcloud datastream</text><rect x="228.668" y="57.297" width="85.543" height="36.297" fill="#E8F0FE" style="stroke:#4285F4;stroke-width:1.5;" rx="12.5" ry="12.5"/><text x="238.668" y="80.292" fill="#202124" font-size="14" textLength="65.543" font-weight="700">Streams</text><rect x="364.211" y="57.297" width="76.663" height="36.297" fill="#F8F9FA" style="stroke:#4285F4;stroke-width:1.5;" rx="12.5" ry="12.5"/><text x="374.211" y="80.292" fill="#202124" font-size="14" textLength="56.663">streams</text><path d="M314.211,75.445 L324.211,75.445 C339.211,75.445 339.211,75.445 354.211,75.445 L364.211,75.445" style="stroke:#181818;stroke-width:1;" fill="none"/><path d="M178.668,159.891 L188.668,159.891 C203.668,159.891 203.668,75.445 218.668,75.445 L228.668,75.445" style="stroke:#181818;stroke-width:1;" fill="none"/><rect x="228.668" y="113.594" width="117.029" height="36.297" fill="#E8F0FE" style="stroke:#4285F4;stroke-width:1.5;" rx="12.5" ry="12.5"/><text x="238.668" y="136.589" fill="#202124" font-size="14" textLength="97.029" font-weight="700">Connections</text><rect x="395.697" y="113.594" width="154.012" height="36.297" fill="#F8F9FA" style="stroke:#4285F4;stroke-width:1.5;" rx="12.5" ry="12.5"/><text x="405.697" y="136.589" fill="#202124" font-size="14" textLength="134.012">connection-profiles</text><path d="M345.697,131.742 L355.697,131.742 C370.697,131.742 370.697,131.742 385.697,131.742 L395.697,131.742" style="stroke:#181818;stroke-width:1;" fill="none"/><path d="M178.668,159.891 L188.668,159.891 C203.668,159.891 203.668,131.742 218.668,131.742 L228.668,131.742" style="stroke:#181818;stroke-width:1;" fill="none"/><rect x="228.668" y="169.891" width="180.453" height="36.297" fill="#E8F0FE" style="stroke:#4285F4;stroke-width:1.5;" rx="12.5" ry="12.5"/><text x="238.668" y="192.886" fill="#202124" font-size="14" textLength="160.453" font-weight="700">Private Connectivity</text><rect x="459.121" y="169.891" width="158.981" height="36.297" fill="#F8F9FA" style="stroke:#4285F4;stroke-width:1.5;" rx="12.5" ry="12.5"/><text x="469.121" y="192.886" fill="#202124" font-size="14" textLength="138.981">private-connections</text><path d="M409.121,188.039 L419.121,188.039 C434.121,188.039 434.121,188.039 449.121,188.039 L459.121,188.039" style="stroke:#181818;stroke-width:1;" fill="none"/><path d="M178.668,159.891 L188.668,159.891 C203.668,159.891 203.668,188.039 218.668,188.039 L228.668,188.039" style="stroke:#181818;stroke-width:1;" fill="none"/><rect x="228.668" y="226.188" width="74.886" height="36.297" fill="#E8F0FE" style="stroke:#4285F4;stroke-width:1.5;" rx="12.5" ry="12.5"/><text x="238.668" y="249.183" fill="#202124" font-size="14" textLength="54.886" font-weight="700">Routes</text><rect x="353.554" y="226.188" width="64.591" height="36.297" fill="#F8F9FA" style="stroke:#4285F4;stroke-width:1.5;" rx="12.5" ry="12.5"/><text x="363.554" y="249.183" fill="#202124" font-size="14" textLength="44.591">routes</text><path d="M303.554,244.336 L313.554,244.336 C328.554,244.336 328.554,244.336 343.554,244.336 L353.554,244.336" style="stroke:#181818;stroke-width:1;" fill="none"/><path d="M178.668,159.891 L188.668,159.891 C203.668,159.891 203.668,244.336 218.668,244.336 L228.668,244.336" style="stroke:#181818;stroke-width:1;" fill="none"/><g class="footer" data-source-line="3"><text x="133.991" y="281.767" fill="#888" font-size="10" textLength="369.121">Disponível em  https://github.com/acnaweb/gcp-associate-cloud-engineer</text></g><?plantuml-src XP9VIWCn4CRVSue1NxImtNQfifOYrRRxf2Bs16bskWtkPfPasb94y11UmrDu4qzYza-heCMNyEMRcTyCcOmTIyk5DcaXIo5OSuwGgPpMAQIIfMEBie3FrpUOK56IGSDmrwOlYHWjJBNpWO_t3UQ01S2AkNJ3CCmqhzQBhg8YbCh8BIx2J9M1T8wKben1tIP0asc3Q8KOETxbU2NQSQPQPjOtVnO0XbAi1S2DL4-PfRL99vIJXUrACzQHMyzfl9D159ydWzfDo73hHhse7rNkY_27zUFV7-V-pVZkLddpQc1OK9xkeSCKIrwTzi-EKMTnqajc_nEYeuGaJYwJwphzHOp2zj54v_VUlDc1UIsTbnrmhQxy2Hc3YZMP9gOEzw2qjDGvDdaFLc_yjWxv6ysxkg1i0e7w0QeA7cdDs31j8yKO_KRtdwpVzNkuwCPV?></g></svg>