<svg xmlns="http://www.w3.org/2000/svg" xmlns:xlink="http://www.w3.org/1999/xlink" version="1.1" data-diagram-type="MINDMAP" style="width:461px;height:239px;background:#FFFFFF;" width="461px" height="239px" viewBox="0 0 461 239" zoomAndPan="magnify" preserveAspectRatio="none" contentStyleType="text/css"><?plantuml 1.2026.8?><defs/><g font-family="sans-serif" lengthAdjust="spacing"><g class="title" data-source-line="2"><text x="76.2" y="32.995" fill="#000" font-size="14" textLength="307.132" font-weight="700">gcloud biglake — Component Mindmap</text></g><rect x="10" y="113.594" width="135.493" height="36.297" fill="#4285F4" style="stroke:#4285F4;stroke-width:1.5;" rx="12.5" ry="12.5"/><text x="20" y="136.589" fill="#FFF" font-size="14" textLength="115.493" font-weight="700">gcloud biglake</text><rect x="195.493" y="57.297" width="71.646" height="36.297" fill="#E8F0FE" style="stroke:#4285F4;stroke-width:1.5;" rx="12.5" ry="12.5"/><text x="205.493" y="80.292" fill="#202124" font-size="14" textLength="51.646" font-weight="700">Tables</text><rect x="317.139" y="57.297" width="62.752" height="36.297" fill="#F8F9FA" style="stroke:#4285F4;stroke-width:1.5;" rx="12.5" ry="12.5"/><text x="327.139" y="80.292" fill="#202124" font-size="14" textLength="42.752">tables</text><path d="M267.139,75.445 L277.139,75.445 C292.139,75.445 292.139,75.445 307.139,75.445 L317.139,75.445" style="stroke:#181818;stroke-width:1;" fill="none"/><path d="M145.493,131.742 L155.493,131.742 C170.493,131.742 170.493,75.445 185.493,75.445 L195.493,75.445" style="stroke:#181818;stroke-width:1;" fill="none"/><rect x="195.493" y="113.594" width="88.633" height="36.297" fill="#E8F0FE" style="stroke:#4285F4;stroke-width:1.5;" rx="12.5" ry="12.5"/><text x="205.493" y="136.589" fill="#202124" font-size="14" textLength="68.633" font-weight="700">Catalogs</text><rect x="334.126" y="113.594" width="78.98" height="36.297" fill="#F8F9FA" style="stroke:#4285F4;stroke-width:1.5;" rx="12.5" ry="12.5"/><text x="344.126" y="136.589" fill="#202124" font-size="14" textLength="58.98">catalogs</text><path d="M284.126,131.742 L294.126,131.742 C309.126,131.742 309.126,131.742 324.126,131.742 L334.126,131.742" style="stroke:#181818;stroke-width:1;" fill="none"/><path d="M145.493,131.742 L155.493,131.742 C170.493,131.742 170.493,131.742 185.493,131.742 L195.493,131.742" style="stroke:#181818;stroke-width:1;" fill="none"/><rect x="195.493" y="169.891" width="102.838" height="36.297" fill="#E8F0FE" style="stroke:#4285F4;stroke-width:1.5;" rx="12.5" ry="12.5"/><text x="205.493" y="192.886" fill="#202124" font-size="14" textLength="82.838" font-weight="700">Databases</text><rect x="348.331" y="169.891" width="92.201" height="36.297" fill="#F8F9FA" style="stroke:#4285F4;stroke-width:1.5;" rx="12.5" ry="12.5"/><text x="358.331" y="192.886" fill="#202124" font-size="14" textLength="72.201">databases</text><path d="M298.331,188.039 L308.331,188.039 C323.331,188.039 323.331,188.039 338.331,188.039 L348.331,188.039" style="stroke:#181818;stroke-width:1;" fill="none"/><path d="M145.493,131.742 L155.493,131.742 C170.493,131.742 170.493,188.039 185.493,188.039 L195.493,188.039" style="stroke:#181818;stroke-width:1;" fill="none"/><g class="footer" data-source-line="3"><text x="45.206" y="225.47" fill="#888" font-size="10" textLength="369.121">Disponível em  https://github.com/acnaweb/gcp-associate-cloud-engineer</text></g><?plantuml-src XP9HJiCm38RVSmfBlC2ahLirK9acDDZM9-25NI1DJ1ejJQh4Oq9e4eVW6fo2ct0Iqgu32J7n4jcVdT-MxLaWxgdILbQyPemq6GGbZDj8ABGoV8tm-Ve6SrVLpg8bkEjo7vqZzB3G8GO-tf_G05O09L4T9acYD9MROY1SbN1X-HQBH8cwpqDmGdF2VbkZZrPfY-WPcmPwDdZ5kbuMcYlFAtXX0DP9R0s06oxMohkDbNDdd8TjgGdRo6tKsREJSPgTv-EMvivIHzDXEaeRkcFnyR7z--EwVslyL6lOGzCm5Cx8W-X4OatbwUZicEeoouVvyd-5zAX2dkMN-NMRlcFJf1iQw_rQMYGzMF72O8XM3sXlDdJEYHkdzbmSd2QoY4x1G_T5VdjiXd4dXniP3U8aBmRP5m00?></g></svg>