<svg xmlns="http://www.w3.org/2000/svg" xmlns:xlink="http://www.w3.org/1999/xlink" version="1.1" data-diagram-type="MINDMAP" style="width:510px;height:408px;background:#FFFFFF;" width="510px" height="408px" viewBox="0 0 510 408" zoomAndPan="magnify" preserveAspectRatio="none" contentStyleType="text/css"><?plantuml 1.2026.8?><defs/><g font-family="sans-serif" lengthAdjust="spacing"><g class="title" data-source-line="2"><text x="102.987" y="32.995" fill="#000" font-size="14" textLength="302.319" font-weight="700">gcloud deploy — Component Mindmap</text></g><rect x="10" y="198.039" width="130.681" height="36.297" fill="#4285F4" style="stroke:#4285F4;stroke-width:1.5;" rx="12.5" ry="12.5"/><text x="20" y="221.034" fill="#FFF" font-size="14" textLength="110.681" font-weight="700">gcloud deploy</text><rect x="190.681" y="57.297" width="91.969" height="36.297" fill="#E8F0FE" style="stroke:#4285F4;stroke-width:1.5;" rx="12.5" ry="12.5"/><text x="200.681" y="80.292" fill="#202124" font-size="14" textLength="71.969" font-weight="700">Pipelines</text><rect x="332.649" y="57.297" width="144.106" height="36.297" fill="#F8F9FA" style="stroke:#4285F4;stroke-width:1.5;" rx="12.5" ry="12.5"/><text x="342.649" y="80.292" fill="#202124" font-size="14" textLength="124.106">delivery-pipelines</text><path d="M282.649,75.445 L292.649,75.445 C307.649,75.445 307.649,75.445 322.649,75.445 L332.649,75.445" style="stroke:#181818;stroke-width:1;" fill="none"/><path d="M140.681,216.188 L150.681,216.188 C165.681,216.188 165.681,75.445 180.681,75.445 L190.681,75.445" style="stroke:#181818;stroke-width:1;" fill="none"/><rect x="190.681" y="113.594" width="80.443" height="36.297" fill="#E8F0FE" style="stroke:#4285F4;stroke-width:1.5;" rx="12.5" ry="12.5"/><text x="200.681" y="136.589" fill="#202124" font-size="14" textLength="60.443" font-weight="700">Targets</text><rect x="321.124" y="113.594" width="70.107" height="36.297" fill="#F8F9FA" style="stroke:#4285F4;stroke-width:1.5;" rx="12.5" ry="12.5"/><text x="331.124" y="136.589" fill="#202124" font-size="14" textLength="50.107">targets</text><path d="M271.124,131.742 L281.124,131.742 C296.124,131.742 296.124,131.742 311.124,131.742 L321.124,131.742" style="stroke:#181818;stroke-width:1;" fill="none"/><path d="M140.681,216.188 L150.681,216.188 C165.681,216.188 165.681,131.742 180.681,131.742 L190.681,131.742" style="stroke:#181818;stroke-width:1;" fill="none"/><rect x="190.681" y="169.891" width="90.178" height="36.297" fill="#E8F0FE" style="stroke:#4285F4;stroke-width:1.5;" rx="12.5" ry="12.5"/><text x="200.681" y="192.886" fill="#202124" font-size="14" textLength="70.178" font-weight="700">Releases</text><rect x="330.858" y="169.891" width="78.652" height="36.297" fill="#F8F9FA" style="stroke:#4285F4;stroke-width:1.5;" rx="12.5" ry="12.5"/><text x="340.858" y="192.886" fill="#202124" font-size="14" textLength="58.652">releases</text><path d="M280.858,188.039 L290.858,188.039 C305.858,188.039 305.858,188.039 320.858,188.039 L330.858,188.039" style="stroke:#181818;stroke-width:1;" fill="none"/><path d="M140.681,216.188 L150.681,216.188 C165.681,216.188 165.681,188.039 180.681,188.039 L190.681,188.039" style="stroke:#181818;stroke-width:1;" fill="none"/><rect x="190.681" y="226.188" width="84.606" height="36.297" fill="#E8F0FE" style="stroke:#4285F4;stroke-width:1.5;" rx="12.5" ry="12.5"/><text x="200.681" y="249.183" fill="#202124" font-size="14" textLength="64.606" font-weight="700">Rollouts</text><rect x="325.287" y="226.188" width="72.322" height="36.297" fill="#F8F9FA" style="stroke:#4285F4;stroke-width:1.5;" rx="12.5" ry="12.5"/><text x="335.287" y="249.183" fill="#202124" font-size="14" textLength="52.322">rollouts</text><path d="M275.287,244.336 L285.287,244.336 C300.287,244.336 300.287,244.336 315.287,244.336 L325.287,244.336" style="stroke:#181818;stroke-width:1;" fill="none"/><path d="M140.681,216.188 L150.681,216.188 C165.681,216.188 165.681,244.336 180.681,244.336 L190.681,244.336" style="stroke:#181818;stroke-width:1;" fill="none"/><rect x="190.681" y="310.633" width="112.224" height="36.297" fill="#E8F0FE" style="stroke:#4285F4;stroke-width:1.5;" rx="12.5" ry="12.5"/><text x="200.681" y="333.628" fill="#202124" font-size="14" textLength="92.224" font-weight="700">Automation</text><rect x="352.904" y="282.484" width="136.389" height="36.297" fill="#F8F9FA" style="stroke:#4285F4;stroke-width:1.5;" rx="12.5" ry="12.5"/><text x="362.904" y="305.479" fill="#202124" font-size="14" textLength="116.389">automation-runs</text><path d="M302.904,328.781 L312.904,328.781 C327.904,328.781 327.904,300.633 342.904,300.633 L352.904,300.633" style="stroke:#181818;stroke-width:1;" fill="none"/><rect x="352.904" y="338.781" width="107.835" height="36.297" fill="#F8F9FA" style="stroke:#4285F4;stroke-width:1.5;" rx="12.5" ry="12.5"/><text x="362.904" y="361.776" fill="#202124" font-size="14" textLength="87.835">automations</text><path d="M302.904,328.781 L312.904,328.781 C327.904,328.781 327.904,356.93 342.904,356.93 L352.904,356.93" style="stroke:#181818;stroke-width:1;" fill="none"/><path d="M140.681,216.188 L150.681,216.188 C165.681,216.188 165.681,328.781 180.681,328.781 L190.681,328.781" style="stroke:#181818;stroke-width:1;" fill="none"/><g class="footer" data-source-line="3"><text x="69.586" y="394.36" fill="#888" font-size="10" textLength="369.121">Disponível em  https://github.com/acnaweb/gcp-associate-cloud-engineer</text></g><?plantuml-src XP9HIiD048RVznG3lcWXJHkgH2dIsZPFAg9UO9kCwU9c9-nEMeeKF8JNy1JUn9EuITEAOl4bx7p_p3_3J4QEfUL2cQoGfH2iM2FagQOgWmnBJMluV7s32HKb6JGCDstg4n6ZXQboNlXuNw86B00MpAMx2CDSyQAQTrCgGfaQkS9vcATb89sZL4d6e6aHeCcLGRH231slDLwATfIfahcL1Rm804CPDW-0Ava-vvOgaqr8auNLGZ4sohNtsRAZGHIV9eE69cIufL4lwaSrtGZ_iNxysyE-VtjyTwlPGpqmp4bdEzCBlp5U7FTF3hdEugINpFvtY0uw975odeoRz8qOXktIHEVdpJpem9qgKVkjE1zqlA3L4kqwAFUuJdgKDaVUfd3xhlazQfIkhRMxe558-qvjYTq5jJAkc0h9YaoZoNqOsCguNyoNZD2VUlVdzRl-G6VT-0i0?></g></svg>