<svg xmlns="http://www.w3.org/2000/svg" xmlns:xlink="http://www.w3.org/1999/xlink" version="1.1" data-diagram-type="MINDMAP" style="width:633px;height:239px;background:#FFFFFF;" width="633px" height="239px" viewBox="0 0 633 239" zoomAndPan="magnify" preserveAspectRatio="none" contentStyleType="text/css"><?plantuml 1.2026.8?><defs/><g font-family="sans-serif" lengthAdjust="spacing"><g class="title" data-source-line="2"><text x="176.507" y="32.995" fill="#000" font-size="14" textLength="278.072" font-weight="700">gcloud iam — Component Mindmap</text></g><rect x="10" y="113.594" width="106.434" height="36.297" fill="#4285F4" style="stroke:#4285F4;stroke-width:1.5;" rx="12.5" ry="12.5"/><text x="20" y="136.589" fill="#FFF" font-size="14" textLength="86.434" font-weight="700">gcloud iam</text><rect x="166.434" y="57.297" width="63.025" height="36.297" fill="#E8F0FE" style="stroke:#4285F4;stroke-width:1.5;" rx="12.5" ry="12.5"/><text x="176.434" y="80.292" fill="#202124" font-size="14" textLength="43.025" font-weight="700">Roles</text><rect x="279.459" y="57.297" width="54.118" height="36.297" fill="#F8F9FA" style="stroke:#4285F4;stroke-width:1.5;" rx="12.5" ry="12.5"/><text x="289.459" y="80.292" fill="#202124" font-size="14" textLength="34.118">roles</text><path d="M229.459,75.445 L239.459,75.445 C254.459,75.445 254.459,75.445 269.459,75.445 L279.459,75.445" style="stroke:#181818;stroke-width:1;" fill="none"/><path d="M116.434,131.742 L126.434,131.742 C141.434,131.742 141.434,75.445 156.434,75.445 L166.434,75.445" style="stroke:#181818;stroke-width:1;" fill="none"/><rect x="166.434" y="113.594" width="155.085" height="36.297" fill="#E8F0FE" style="stroke:#4285F4;stroke-width:1.5;" rx="12.5" ry="12.5"/><text x="176.434" y="136.589" fill="#202124" font-size="14" textLength="135.085" font-weight="700">Service Accounts</text><rect x="371.519" y="113.594" width="138.269" height="36.297" fill="#F8F9FA" style="stroke:#4285F4;stroke-width:1.5;" rx="12.5" ry="12.5"/><text x="381.519" y="136.589" fill="#202124" font-size="14" textLength="118.269">service-accounts</text><rect x="559.787" y="113.594" width="52.3" height="36.297" fill="#FFF" style="stroke:#4285F4;stroke-width:1.5;" rx="12.5" ry="12.5"/><text x="569.787" y="136.589" fill="#202124" font-size="14" textLength="32.3">keys</text><path d="M509.787,131.742 L519.787,131.742 C534.787,131.742 534.787,131.742 549.787,131.742 L559.787,131.742" style="stroke:#181818;stroke-width:1;" fill="none"/><path d="M321.519,131.742 L331.519,131.742 C346.519,131.742 346.519,131.742 361.519,131.742 L371.519,131.742" style="stroke:#181818;stroke-width:1;" fill="none"/><path d="M116.434,131.742 L126.434,131.742 C141.434,131.742 141.434,131.742 156.434,131.742 L166.434,131.742" style="stroke:#181818;stroke-width:1;" fill="none"/><rect x="166.434" y="169.891" width="162.037" height="36.297" fill="#E8F0FE" style="stroke:#4285F4;stroke-width:1.5;" rx="12.5" ry="12.5"/><text x="176.434" y="192.886" fill="#202124" font-size="14" textLength="142.037" font-weight="700">Workload Identity</text><rect x="378.471" y="169.891" width="184.521" height="36.297" fill="#F8F9FA" style="stroke:#4285F4;stroke-width:1.5;" rx="12.5" ry="12.5"/><text x="388.471" y="192.886" fill="#202124" font-size="14" textLength="164.521">workload-identity-pools</text><path d="M328.471,188.039 L338.471,188.039 C353.471,188.039 353.471,188.039 368.471,188.039 L378.471,188.039" style="stroke:#181818;stroke-width:1;" fill="none"/><path d="M116.434,131.742 L126.434,131.742 C141.434,131.742 141.434,188.039 156.434,188.039 L166.434,188.039" style="stroke:#181818;stroke-width:1;" fill="none"/><g class="footer" data-source-line="3"><text x="130.983" y="225.47" fill="#888" font-size="10" textLength="369.121">Disponível em  https://github.com/acnaweb/gcp-associate-cloud-engineer</text></g><?plantuml-src XP9BJiCm443tFiL8R21IcZOgA5GLQcaR2GbOq0LhrnaIguudijrM5KBY45o3Kt0JJeBpgUY2YaqqUUDv7diyiOuRLqgTbRnYp4cd47AXQ9E1v2Lylt_0ZCgAD6e73zsw5oA71kRI-iJNvnOLO0bGE5VPKHJbqXMRLKzG6N6X-GvNKIwga5jBGdA7OUCFKUTI8nh6njRj5Twmhe-vvBdncxyo04qPDW70BHVhtD16PpDIP61NI8TDvjvxMdOsZ9FBTDZGbBJhQDoF1t5DtvZ_6D_-usdltuxVtMgsh1k65Qdi81rbMBdYV71nohf8qdww-DyGdpIaINgTJflbRsmSTPV6WgE1-Ry0daYXzK7WJrf7DLkYsKg1C1N26rsRjYqC-H4CO8txjkQPp5eHp-0kyzENRjyKxJeQoew65P7o5HFqqpkyf47Ft_bLB_a1?></g></svg>