<svg xmlns="http://www.w3.org/2000/svg" xmlns:xlink="http://www.w3.org/1999/xlink" version="1.1" data-diagram-type="MINDMAP" style="width:444px;height:239px;background:#FFFFFF;" width="444px" height="239px" viewBox="0 0 444 239" zoomAndPan="magnify" preserveAspectRatio="none" contentStyleType="text/css"><?plantuml 1.2026.8?><defs/><g font-family="sans-serif" lengthAdjust="spacing"><g class="title" data-source-line="2"><text x="67.949" y="32.995" fill="#000" font-size="14" textLength="306.79" font-weight="700">gcloud secrets — Component Mindmap</text></g><rect x="10" y="113.594" width="135.151" height="36.297" fill="#4285F4" style="stroke:#4285F4;stroke-width:1.5;" rx="12.5" ry="12.5"/><text x="20" y="136.589" fill="#FFF" font-size="14" textLength="115.151" font-weight="700">gcloud secrets</text><rect x="195.151" y="57.297" width="79.302" height="36.297" fill="#E8F0FE" style="stroke:#4285F4;stroke-width:1.5;" rx="12.5" ry="12.5"/><text x="205.151" y="80.292" fill="#202124" font-size="14" textLength="59.302" font-weight="700">Secrets</text><rect x="324.453" y="57.297" width="70.757" height="36.297" fill="#F8F9FA" style="stroke:#4285F4;stroke-width:1.5;" rx="12.5" ry="12.5"/><text x="334.453" y="80.292" fill="#202124" font-size="14" textLength="50.757">secrets</text><path d="M274.453,75.445 L284.453,75.445 C299.453,75.445 299.453,75.445 314.453,75.445 L324.453,75.445" style="stroke:#181818;stroke-width:1;" fill="none"/><path d="M145.151,131.742 L155.151,131.742 C170.151,131.742 170.151,75.445 185.151,75.445 L195.151,75.445" style="stroke:#181818;stroke-width:1;" fill="none"/><rect x="195.151" y="113.594" width="88.284" height="36.297" fill="#E8F0FE" style="stroke:#4285F4;stroke-width:1.5;" rx="12.5" ry="12.5"/><text x="205.151" y="136.589" fill="#202124" font-size="14" textLength="68.284" font-weight="700">Versions</text><rect x="333.436" y="113.594" width="78.57" height="36.297" fill="#F8F9FA" style="stroke:#4285F4;stroke-width:1.5;" rx="12.5" ry="12.5"/><text x="343.436" y="136.589" fill="#202124" font-size="14" textLength="58.57">versions</text><path d="M283.436,131.742 L293.436,131.742 C308.436,131.742 308.436,131.742 323.436,131.742 L333.436,131.742" style="stroke:#181818;stroke-width:1;" fill="none"/><path d="M145.151,131.742 L155.151,131.742 C170.151,131.742 170.151,131.742 185.151,131.742 L195.151,131.742" style="stroke:#181818;stroke-width:1;" fill="none"/><rect x="195.151" y="169.891" width="95.694" height="36.297" fill="#E8F0FE" style="stroke:#4285F4;stroke-width:1.5;" rx="12.5" ry="12.5"/><text x="205.151" y="192.886" fill="#202124" font-size="14" textLength="75.694" font-weight="700">Locations</text><rect x="340.846" y="169.891" width="82.843" height="36.297" fill="#F8F9FA" style="stroke:#4285F4;stroke-width:1.5;" rx="12.5" ry="12.5"/><text x="350.846" y="192.886" fill="#202124" font-size="14" textLength="62.843">locations</text><path d="M290.846,188.039 L300.846,188.039 C315.846,188.039 315.846,188.039 330.846,188.039 L340.846,188.039" style="stroke:#181818;stroke-width:1;" fill="none"/><path d="M145.151,131.742 L155.151,131.742 C170.151,131.742 170.151,188.039 185.151,188.039 L195.151,188.039" style="stroke:#181818;stroke-width:1;" fill="none"/><g class="footer" data-source-line="3"><text x="36.784" y="225.47" fill="#888" font-size="10" textLength="369.121">Disponível em  https://github.com/acnaweb/gcp-associate-cloud-engineer</text></g><?plantuml-src XPB1IiD048Rl-nG3NhJGfWrLOYbIRPjJzI9utsx6P76p4tQdBI857yBNy2by4v_4JPfM4OkNPUR_Xs-6cPrubevBRRDILaAmPeEGAqEh33mgX-pXy_KDfbHMPD4otBQrZqIC3cRQ1-FZVOq6i0Gec2i_Yg9SSx5QzXILaLHMRd0PvQhgIkz9QSdORNfqqURQ8ZeXnfwV3Lw9TfQPbhcJ9Rm804iPDW70ZLHFkQELpQPaoC6cq8oDimYSdNOoZ9FpTDYeALbkrRWV3-9QtOhmk33-tN7ktuplRhLsNmyCIpBP7ZhAiEBYT71sZ3fFqduw_vyG7oMaINgPNZVbMp6EsgM9pg-Z1QK3zstS2V5F_G6TrsHtndgVrCw2bEI3PGwPc62uolwN37fXbnUzv0i0?></g></svg>