<svg xmlns="http://www.w3.org/2000/svg" xmlns:xlink="http://www.w3.org/1999/xlink" version="1.1" data-diagram-type="MINDMAP" style="width:475px;height:352px;background:#FFFFFF;" width="475px" height="352px" viewBox="0 0 475 352" zoomAndPan="magnify" preserveAspectRatio="none" contentStyleType="text/css"><?plantuml 1.2026.8?><defs/><g font-family="sans-serif" lengthAdjust="spacing"><g class="title" data-source-line="2"><text x="79.57" y="32.995" fill="#000" font-size="14" textLength="314.022" font-weight="700">gcloud services — Component Mindmap</text></g><rect x="10" y="169.891" width="142.384" height="36.297" fill="#4285F4" style="stroke:#4285F4;stroke-width:1.5;" rx="12.5" ry="12.5"/><text x="20" y="192.886" fill="#FFF" font-size="14" textLength="122.384" font-weight="700">gcloud services</text><rect x="202.384" y="113.594" width="131.74" height="36.297" fill="#E8F0FE" style="stroke:#4285F4;stroke-width:1.5;" rx="12.5" ry="12.5"/><text x="212.384" y="136.589" fill="#202124" font-size="14" textLength="111.74" font-weight="700">Service Usage</text><rect x="384.124" y="57.297" width="40.563" height="36.297" fill="#F8F9FA" style="stroke:#4285F4;stroke-width:1.5;" rx="12.5" ry="12.5"/><text x="394.124" y="80.292" fill="#202124" font-size="14" textLength="20.563">list</text><path d="M334.124,131.742 L344.124,131.742 C359.124,131.742 359.124,75.445 374.124,75.445 L384.124,75.445" style="stroke:#181818;stroke-width:1;" fill="none"/><rect x="384.124" y="113.594" width="67.455" height="36.297" fill="#F8F9FA" style="stroke:#4285F4;stroke-width:1.5;" rx="12.5" ry="12.5"/><text x="394.124" y="136.589" fill="#202124" font-size="14" textLength="47.455">enable</text><path d="M334.124,131.742 L344.124,131.742 C359.124,131.742 359.124,131.742 374.124,131.742 L384.124,131.742" style="stroke:#181818;stroke-width:1;" fill="none"/><rect x="384.124" y="169.891" width="70.039" height="36.297" fill="#F8F9FA" style="stroke:#4285F4;stroke-width:1.5;" rx="12.5" ry="12.5"/><text x="394.124" y="192.886" fill="#202124" font-size="14" textLength="50.039">disable</text><path d="M334.124,131.742 L344.124,131.742 C359.124,131.742 359.124,188.039 374.124,188.039 L384.124,188.039" style="stroke:#181818;stroke-width:1;" fill="none"/><path d="M152.384,188.039 L162.384,188.039 C177.384,188.039 177.384,131.742 192.384,131.742 L202.384,131.742" style="stroke:#181818;stroke-width:1;" fill="none"/><rect x="202.384" y="226.188" width="88.981" height="36.297" fill="#E8F0FE" style="stroke:#4285F4;stroke-width:1.5;" rx="12.5" ry="12.5"/><text x="212.384" y="249.183" fill="#202124" font-size="14" textLength="68.981" font-weight="700">API Keys</text><rect x="341.365" y="226.188" width="78.707" height="36.297" fill="#F8F9FA" style="stroke:#4285F4;stroke-width:1.5;" rx="12.5" ry="12.5"/><text x="351.365" y="249.183" fill="#202124" font-size="14" textLength="58.707">api-keys</text><path d="M291.365,244.336 L301.365,244.336 C316.365,244.336 316.365,244.336 331.365,244.336 L341.365,244.336" style="stroke:#181818;stroke-width:1;" fill="none"/><path d="M152.384,188.039 L162.384,188.039 C177.384,188.039 177.384,244.336 192.384,244.336 L202.384,244.336" style="stroke:#181818;stroke-width:1;" fill="none"/><rect x="202.384" y="282.484" width="107.179" height="36.297" fill="#E8F0FE" style="stroke:#4285F4;stroke-width:1.5;" rx="12.5" ry="12.5"/><text x="212.384" y="305.479" fill="#202124" font-size="14" textLength="87.179" font-weight="700">Operations</text><rect x="359.563" y="282.484" width="94.512" height="36.297" fill="#F8F9FA" style="stroke:#4285F4;stroke-width:1.5;" rx="12.5" ry="12.5"/><text x="369.563" y="305.479" fill="#202124" font-size="14" textLength="74.512">operations</text><path d="M309.563,300.633 L319.563,300.633 C334.563,300.633 334.563,300.633 349.563,300.633 L359.563,300.633" style="stroke:#181818;stroke-width:1;" fill="none"/><path d="M152.384,188.039 L162.384,188.039 C177.384,188.039 177.384,300.633 192.384,300.633 L202.384,300.633" style="stroke:#181818;stroke-width:1;" fill="none"/><g class="footer" data-source-line="3"><text x="52.021" y="338.063" fill="#888" font-size="10" textLength="369.121">Disponível em  https://github.com/acnaweb/gcp-associate-cloud-engineer</text></g><?plantuml-src XP9VQiCm3CRVVGh1NhP2cZPq8ojbj6iR6FiBPGTm4oqnTUnWgorb57Q8NMEds4rsaZbEoc2ixCL8ly_-92IFBN53fL1PoIl6I914o5EfrnbOD1kHeeMljtUOwhBI2XN1VNlvHMj20pDXdV3viK49M08KH9KTXc4kg5WlkwakGvugliLbcATLmAtLgU24WIyIeCg5GZICZIpj95wnjfcPuBdX9Rmo0AKpz070DKzNkT5hbKsrr0QsXI3qoftpQTZ988hFau6dYLRKqgWNzQEQxfaxZ6l_uRZltnu_rMgsg1k6fPRPmNIOOKN5QV_icEiyJdh9_7-7wAX34YUNoSHVtxDHs0wDTNvlpQ4EB9e4dYtFqO4EI6791wZuKZOi4zR7zOl9qmtSuivwWLSYMDL9hJnMQ3W9hHfD_wHiZ6vbXp_Kxxf1NtJZRm00?></g></svg>